<mxfile host="app.diagrams.net" modified="2024-04-22T08:16:22.694Z" agent="Mozilla/5.0 (Windows NT 10.0; Win64; x64) AppleWebKit/537.36 (KHTML, like Gecko) Chrome/124.0.0.0 Safari/537.36" etag="i2mv8o_6yKBoAvGv9Lni" version="24.2.7" type="github">
  <diagram id="6a731a19-8d31-9384-78a2-239565b7b9f0" name="Page-1">
    <mxGraphModel dx="3611" dy="2277" grid="1" gridSize="10" guides="1" tooltips="1" connect="1" arrows="1" fold="1" page="1" pageScale="1" pageWidth="1169" pageHeight="827" background="none" math="0" shadow="0">
      <root>
        <mxCell id="0" />
        <mxCell id="1" parent="0" />
        <mxCell id="1747" value="" style="edgeStyle=none;rounded=0;jumpStyle=none;html=1;shadow=0;labelBackgroundColor=none;startArrow=none;startFill=0;endArrow=classic;endFill=1;jettySize=auto;orthogonalLoop=1;strokeColor=#2F5B7C;strokeWidth=3;fontFamily=Helvetica;fontSize=16;fontColor=#23445D;spacing=5;entryX=0.5;entryY=0;entryDx=0;entryDy=0;" parent="1" source="1749" target="1760" edge="1">
          <mxGeometry relative="1" as="geometry" />
        </mxCell>
        <mxCell id="1749" value="ASM" style="rounded=1;whiteSpace=wrap;html=1;shadow=0;labelBackgroundColor=none;strokeColor=none;strokeWidth=3;fillColor=#2F5B7C;fontFamily=Helvetica;fontSize=16;fontColor=#FFFFFF;align=center;fontStyle=1;spacing=5;arcSize=7;perimeterSpacing=2;" parent="1" vertex="1">
          <mxGeometry x="330" y="320" width="150" height="70" as="geometry" />
        </mxCell>
        <mxCell id="1758" value="" style="edgeStyle=none;rounded=0;jumpStyle=none;html=1;shadow=0;labelBackgroundColor=none;startArrow=none;startFill=0;endArrow=classic;endFill=1;jettySize=auto;orthogonalLoop=1;strokeColor=#1699D3;strokeWidth=3;fontFamily=Helvetica;fontSize=14;fontColor=#FFFFFF;spacing=5;entryX=0.5;entryY=0;entryDx=0;entryDy=0;" parent="1" source="dubBO0x6jDg2hfLxzebg-1798" target="1762" edge="1">
          <mxGeometry relative="1" as="geometry" />
        </mxCell>
        <mxCell id="1760" value="To Mesh" style="rounded=1;whiteSpace=wrap;html=1;shadow=0;labelBackgroundColor=none;strokeColor=none;strokeWidth=3;fillColor=#1699d3;fontFamily=Helvetica;fontSize=14;fontColor=#000000;align=center;spacing=5;fontStyle=1;arcSize=7;perimeterSpacing=2;" parent="1" vertex="1">
          <mxGeometry x="430" y="510" width="150" height="60" as="geometry" />
        </mxCell>
        <mxCell id="1762" value="To Histogram" style="rounded=1;whiteSpace=wrap;html=1;shadow=0;labelBackgroundColor=none;strokeColor=none;strokeWidth=3;fillColor=#64bbe2;fontFamily=Helvetica;fontSize=14;fontColor=#FFFFFF;align=center;spacing=5;arcSize=7;perimeterSpacing=2;" parent="1" vertex="1">
          <mxGeometry x="-20" y="730" width="150" height="60" as="geometry" />
        </mxCell>
        <mxCell id="1772" value="Deep Hybrid Self-Prior for Full 3D Mesh Generation" style="rounded=1;whiteSpace=wrap;html=1;shadow=0;labelBackgroundColor=none;strokeColor=none;strokeWidth=3;fillColor=#61c6ce;fontFamily=Helvetica;fontSize=14;fontColor=#FFFFFF;align=center;spacing=5;fontStyle=0;arcSize=7;perimeterSpacing=2;" parent="1" vertex="1">
          <mxGeometry x="700" y="414" width="150" height="60" as="geometry" />
        </mxCell>
        <mxCell id="dubBO0x6jDg2hfLxzebg-1780" value="" style="edgeStyle=none;rounded=0;jumpStyle=none;html=1;shadow=0;labelBackgroundColor=none;startArrow=none;startFill=0;endArrow=classic;endFill=1;jettySize=auto;orthogonalLoop=1;strokeColor=#1699D3;strokeWidth=3;fontFamily=Helvetica;fontSize=14;fontColor=#FFFFFF;spacing=5;exitX=0.638;exitY=0.993;exitDx=0;exitDy=0;exitPerimeter=0;" edge="1" parent="1" target="dubBO0x6jDg2hfLxzebg-1781" source="dubBO0x6jDg2hfLxzebg-1794">
          <mxGeometry relative="1" as="geometry">
            <mxPoint x="504" y="620" as="sourcePoint" />
          </mxGeometry>
        </mxCell>
        <mxCell id="dubBO0x6jDg2hfLxzebg-1781" value="PCA Normal Estimation" style="rounded=1;whiteSpace=wrap;html=1;shadow=0;labelBackgroundColor=none;strokeColor=none;strokeWidth=3;fillColor=#64bbe2;fontFamily=Helvetica;fontSize=14;fontColor=#FFFFFF;align=center;spacing=5;arcSize=7;perimeterSpacing=2;" vertex="1" parent="1">
          <mxGeometry x="-60" y="560" width="150" height="60" as="geometry" />
        </mxCell>
        <mxCell id="dubBO0x6jDg2hfLxzebg-1784" value="To Cube Mesh" style="rounded=1;whiteSpace=wrap;html=1;shadow=0;labelBackgroundColor=none;strokeColor=none;strokeWidth=3;fillColor=#64bbe2;fontFamily=Helvetica;fontSize=14;fontColor=#FFFFFF;align=center;spacing=5;arcSize=7;perimeterSpacing=2;" vertex="1" parent="1">
          <mxGeometry x="530" y="660" width="150" height="60" as="geometry" />
        </mxCell>
        <mxCell id="dubBO0x6jDg2hfLxzebg-1785" value="" style="edgeStyle=none;rounded=0;jumpStyle=none;html=1;shadow=0;labelBackgroundColor=none;startArrow=none;startFill=0;endArrow=classic;endFill=1;jettySize=auto;orthogonalLoop=1;strokeColor=#1699D3;strokeWidth=3;fontFamily=Helvetica;fontSize=14;fontColor=#FFFFFF;spacing=5;exitX=0.75;exitY=1;exitDx=0;exitDy=0;entryX=0.5;entryY=0;entryDx=0;entryDy=0;" edge="1" parent="1" source="1760" target="dubBO0x6jDg2hfLxzebg-1784">
          <mxGeometry relative="1" as="geometry">
            <mxPoint x="404" y="592" as="sourcePoint" />
            <mxPoint x="485" y="728" as="targetPoint" />
          </mxGeometry>
        </mxCell>
        <mxCell id="dubBO0x6jDg2hfLxzebg-1794" value="To Geometry" style="rounded=1;whiteSpace=wrap;html=1;shadow=0;labelBackgroundColor=none;strokeColor=none;strokeWidth=3;fillColor=#1699d3;fontFamily=Helvetica;fontSize=14;fontColor=#FFFFFF;align=center;spacing=5;fontStyle=1;arcSize=7;perimeterSpacing=2;" vertex="1" parent="1">
          <mxGeometry x="-20" y="340" width="150" height="60" as="geometry" />
        </mxCell>
        <mxCell id="dubBO0x6jDg2hfLxzebg-1795" value="" style="edgeStyle=none;rounded=0;jumpStyle=none;html=1;shadow=0;labelBackgroundColor=none;startArrow=none;startFill=0;endArrow=classic;endFill=1;jettySize=auto;orthogonalLoop=1;strokeColor=#2F5B7C;strokeWidth=3;fontFamily=Helvetica;fontSize=16;fontColor=#23445D;spacing=5;entryX=1;entryY=0.5;entryDx=0;entryDy=0;exitX=0;exitY=0.5;exitDx=0;exitDy=0;" edge="1" parent="1" source="1749" target="dubBO0x6jDg2hfLxzebg-1794">
          <mxGeometry relative="1" as="geometry">
            <mxPoint x="412" y="434" as="sourcePoint" />
            <mxPoint x="202" y="454" as="targetPoint" />
          </mxGeometry>
        </mxCell>
        <mxCell id="dubBO0x6jDg2hfLxzebg-1796" value="Poisson Reconstruction" style="rounded=1;whiteSpace=wrap;html=1;shadow=0;labelBackgroundColor=none;strokeColor=none;strokeWidth=3;fillColor=#64bbe2;fontFamily=Helvetica;fontSize=14;fontColor=#FFFFFF;align=center;spacing=5;arcSize=7;perimeterSpacing=2;" vertex="1" parent="1">
          <mxGeometry x="340" y="660" width="150" height="60" as="geometry" />
        </mxCell>
        <mxCell id="dubBO0x6jDg2hfLxzebg-1797" value="" style="edgeStyle=none;rounded=0;jumpStyle=none;html=1;shadow=0;labelBackgroundColor=none;startArrow=none;startFill=0;endArrow=classic;endFill=1;jettySize=auto;orthogonalLoop=1;strokeColor=#1699D3;strokeWidth=3;fontFamily=Helvetica;fontSize=14;fontColor=#FFFFFF;spacing=5;exitX=0.25;exitY=1;exitDx=0;exitDy=0;entryX=0.5;entryY=0;entryDx=0;entryDy=0;" edge="1" parent="1" source="1760" target="dubBO0x6jDg2hfLxzebg-1796">
          <mxGeometry relative="1" as="geometry">
            <mxPoint x="380" y="593.5" as="sourcePoint" />
            <mxPoint x="453" y="614.5" as="targetPoint" />
          </mxGeometry>
        </mxCell>
        <mxCell id="dubBO0x6jDg2hfLxzebg-1798" value="To Statistic" style="rounded=1;whiteSpace=wrap;html=1;shadow=0;labelBackgroundColor=none;strokeColor=none;strokeWidth=3;fillColor=#1699d3;fontFamily=Helvetica;fontSize=14;fontColor=#FFFFFF;align=center;spacing=5;fontStyle=1;arcSize=7;perimeterSpacing=2;" vertex="1" parent="1">
          <mxGeometry x="170" y="520" width="150" height="60" as="geometry" />
        </mxCell>
        <mxCell id="dubBO0x6jDg2hfLxzebg-1799" value="" style="edgeStyle=none;rounded=0;jumpStyle=none;html=1;shadow=0;labelBackgroundColor=none;startArrow=none;startFill=0;endArrow=classic;endFill=1;jettySize=auto;orthogonalLoop=1;strokeColor=#2F5B7C;strokeWidth=3;fontFamily=Helvetica;fontSize=16;fontColor=#23445D;spacing=5;entryX=0.449;entryY=-0.026;entryDx=0;entryDy=0;exitX=0.389;exitY=1.02;exitDx=0;exitDy=0;exitPerimeter=0;entryPerimeter=0;" edge="1" parent="1" source="1749" target="dubBO0x6jDg2hfLxzebg-1798">
          <mxGeometry relative="1" as="geometry">
            <mxPoint x="434" y="440" as="sourcePoint" />
            <mxPoint x="222" y="490" as="targetPoint" />
          </mxGeometry>
        </mxCell>
        <mxCell id="dubBO0x6jDg2hfLxzebg-1800" value="&lt;b&gt;Segmentation&lt;/b&gt;" style="rounded=1;whiteSpace=wrap;html=1;shadow=0;labelBackgroundColor=none;strokeColor=none;strokeWidth=3;fillColor=#64bbe2;fontFamily=Helvetica;fontSize=14;fontColor=#000000;align=center;spacing=5;arcSize=7;perimeterSpacing=2;" vertex="1" parent="1">
          <mxGeometry x="-340" y="530" width="150" height="60" as="geometry" />
        </mxCell>
        <mxCell id="dubBO0x6jDg2hfLxzebg-1801" value="&lt;b&gt;Alingment&lt;/b&gt;" style="rounded=1;whiteSpace=wrap;html=1;shadow=0;labelBackgroundColor=none;strokeColor=none;strokeWidth=3;fillColor=#64bbe2;fontFamily=Helvetica;fontSize=14;fontColor=#000000;align=center;spacing=5;arcSize=7;perimeterSpacing=2;" vertex="1" parent="1">
          <mxGeometry x="-360" y="350" width="150" height="60" as="geometry" />
        </mxCell>
        <mxCell id="dubBO0x6jDg2hfLxzebg-1802" value="To Texture" style="rounded=1;whiteSpace=wrap;html=1;shadow=0;labelBackgroundColor=none;strokeColor=none;strokeWidth=3;fillColor=#64bbe2;fontFamily=Helvetica;fontSize=14;fontColor=#FFFFFF;align=center;spacing=5;arcSize=7;perimeterSpacing=2;" vertex="1" parent="1">
          <mxGeometry x="-290" y="210" width="150" height="60" as="geometry" />
        </mxCell>
        <mxCell id="dubBO0x6jDg2hfLxzebg-1803" value="" style="edgeStyle=none;rounded=0;jumpStyle=none;html=1;shadow=0;labelBackgroundColor=none;startArrow=none;startFill=0;endArrow=classic;endFill=1;jettySize=auto;orthogonalLoop=1;strokeColor=#1699D3;strokeWidth=3;fontFamily=Helvetica;fontSize=14;fontColor=#FFFFFF;spacing=5;exitX=0.25;exitY=1;exitDx=0;exitDy=0;entryX=1;entryY=0.5;entryDx=0;entryDy=0;" edge="1" parent="1" source="dubBO0x6jDg2hfLxzebg-1794" target="dubBO0x6jDg2hfLxzebg-1800">
          <mxGeometry relative="1" as="geometry">
            <mxPoint x="66" y="506" as="sourcePoint" />
            <mxPoint x="-3" y="608" as="targetPoint" />
          </mxGeometry>
        </mxCell>
        <mxCell id="dubBO0x6jDg2hfLxzebg-1804" value="" style="edgeStyle=none;rounded=0;jumpStyle=none;html=1;shadow=0;labelBackgroundColor=none;startArrow=none;startFill=0;endArrow=classic;endFill=1;jettySize=auto;orthogonalLoop=1;strokeColor=#1699D3;strokeWidth=3;fontFamily=Helvetica;fontSize=14;fontColor=#FFFFFF;spacing=5;exitX=0;exitY=0.75;exitDx=0;exitDy=0;" edge="1" parent="1" source="dubBO0x6jDg2hfLxzebg-1794" target="dubBO0x6jDg2hfLxzebg-1801">
          <mxGeometry relative="1" as="geometry">
            <mxPoint x="-40" y="471.5" as="sourcePoint" />
            <mxPoint x="-135" y="524.5" as="targetPoint" />
          </mxGeometry>
        </mxCell>
        <mxCell id="dubBO0x6jDg2hfLxzebg-1805" value="" style="edgeStyle=none;rounded=0;jumpStyle=none;html=1;shadow=0;labelBackgroundColor=none;startArrow=none;startFill=0;endArrow=classic;endFill=1;jettySize=auto;orthogonalLoop=1;strokeColor=#1699D3;strokeWidth=3;fontFamily=Helvetica;fontSize=14;fontColor=#FFFFFF;spacing=5;exitX=0;exitY=0.25;exitDx=0;exitDy=0;entryX=1;entryY=0.5;entryDx=0;entryDy=0;" edge="1" parent="1" source="dubBO0x6jDg2hfLxzebg-1794" target="dubBO0x6jDg2hfLxzebg-1802">
          <mxGeometry relative="1" as="geometry">
            <mxPoint x="-2" y="384.5" as="sourcePoint" />
            <mxPoint x="-100" y="378" as="targetPoint" />
          </mxGeometry>
        </mxCell>
        <mxCell id="dubBO0x6jDg2hfLxzebg-1807" value="Neural Kernel Surface Reconstruction" style="rounded=1;whiteSpace=wrap;html=1;shadow=0;labelBackgroundColor=none;strokeColor=none;strokeWidth=3;fillColor=#61c6ce;fontFamily=Helvetica;fontSize=14;fontColor=#FFFFFF;align=center;spacing=5;fontStyle=0;arcSize=7;perimeterSpacing=2;" vertex="1" parent="1">
          <mxGeometry x="750" y="530" width="150" height="60" as="geometry" />
        </mxCell>
        <mxCell id="dubBO0x6jDg2hfLxzebg-1808" value="" style="edgeStyle=none;rounded=0;jumpStyle=none;html=1;shadow=0;labelBackgroundColor=none;startArrow=none;startFill=0;endArrow=classic;endFill=1;jettySize=auto;orthogonalLoop=1;strokeColor=#61C6CE;strokeWidth=3;fontFamily=Helvetica;fontSize=14;fontColor=#FFFFFF;spacing=5;exitX=1;exitY=0.75;exitDx=0;exitDy=0;entryX=0;entryY=0.5;entryDx=0;entryDy=0;" edge="1" parent="1" source="1760" target="dubBO0x6jDg2hfLxzebg-1807">
          <mxGeometry relative="1" as="geometry">
            <mxPoint x="554" y="582" as="sourcePoint" />
            <mxPoint x="810" y="556" as="targetPoint" />
          </mxGeometry>
        </mxCell>
        <mxCell id="dubBO0x6jDg2hfLxzebg-1809" value="" style="edgeStyle=none;rounded=0;jumpStyle=none;html=1;shadow=0;labelBackgroundColor=none;startArrow=none;startFill=0;endArrow=classic;endFill=1;jettySize=auto;orthogonalLoop=1;strokeColor=#61C6CE;strokeWidth=3;fontFamily=Helvetica;fontSize=14;fontColor=#FFFFFF;spacing=5;exitX=1;exitY=0.75;exitDx=0;exitDy=0;entryX=-0.013;entryY=0.618;entryDx=0;entryDy=0;entryPerimeter=0;" edge="1" parent="1" target="1772">
          <mxGeometry relative="1" as="geometry">
            <mxPoint x="584" y="530" as="sourcePoint" />
            <mxPoint x="820" y="534" as="targetPoint" />
          </mxGeometry>
        </mxCell>
        <mxCell id="dubBO0x6jDg2hfLxzebg-1810" value="From Image" style="rounded=1;whiteSpace=wrap;html=1;shadow=0;labelBackgroundColor=none;strokeColor=none;strokeWidth=3;fillColor=#1699d3;fontFamily=Helvetica;fontSize=14;fontColor=#FFFFFF;align=center;spacing=5;fontStyle=1;arcSize=7;perimeterSpacing=2;" vertex="1" parent="1">
          <mxGeometry x="-570" y="434.5" width="150" height="60" as="geometry" />
        </mxCell>
        <mxCell id="dubBO0x6jDg2hfLxzebg-1811" value="" style="edgeStyle=none;rounded=0;jumpStyle=none;html=1;shadow=0;labelBackgroundColor=none;startArrow=none;startFill=0;endArrow=classic;endFill=1;jettySize=auto;orthogonalLoop=1;strokeColor=#1699D3;strokeWidth=3;fontFamily=Helvetica;fontSize=14;fontColor=#FFFFFF;spacing=5;exitX=0.5;exitY=1;exitDx=0;exitDy=0;entryX=0;entryY=0.5;entryDx=0;entryDy=0;shape=flexArrow;" edge="1" parent="1" source="dubBO0x6jDg2hfLxzebg-1810" target="dubBO0x6jDg2hfLxzebg-1800">
          <mxGeometry relative="1" as="geometry">
            <mxPoint x="-605" y="527" as="sourcePoint" />
            <mxPoint x="-790" y="590" as="targetPoint" />
          </mxGeometry>
        </mxCell>
        <mxCell id="dubBO0x6jDg2hfLxzebg-1812" value="" style="edgeStyle=none;rounded=0;jumpStyle=none;html=1;shadow=0;labelBackgroundColor=none;startArrow=none;startFill=0;endArrow=classic;endFill=1;jettySize=auto;orthogonalLoop=1;strokeColor=#1699D3;strokeWidth=3;fontFamily=Helvetica;fontSize=14;fontColor=#FFFFFF;spacing=5;entryX=0.5;entryY=1;entryDx=0;entryDy=0;shape=flexArrow;" edge="1" parent="1" source="1762" target="dubBO0x6jDg2hfLxzebg-1800">
          <mxGeometry relative="1" as="geometry">
            <mxPoint x="-190" y="790" as="sourcePoint" />
            <mxPoint x="-37" y="853" as="targetPoint" />
            <Array as="points">
              <mxPoint x="-220" y="720" />
            </Array>
          </mxGeometry>
        </mxCell>
        <mxCell id="dubBO0x6jDg2hfLxzebg-1814" value="" style="edgeStyle=none;rounded=0;jumpStyle=none;html=1;shadow=0;labelBackgroundColor=none;startArrow=none;startFill=0;endArrow=classic;endFill=1;jettySize=auto;orthogonalLoop=1;strokeColor=#64BBE2;strokeWidth=3;fontFamily=Helvetica;fontSize=14;fontColor=#FFFFFF;spacing=5;exitX=0.5;exitY=1;exitDx=0;exitDy=0;entryX=0;entryY=0.5;entryDx=0;entryDy=0;shape=flexArrow;" edge="1" parent="1" source="dubBO0x6jDg2hfLxzebg-1781" target="dubBO0x6jDg2hfLxzebg-1796">
          <mxGeometry relative="1" as="geometry">
            <mxPoint x="260" y="650" as="sourcePoint" />
            <mxPoint x="209" y="806" as="targetPoint" />
            <Array as="points">
              <mxPoint x="160" y="690" />
            </Array>
          </mxGeometry>
        </mxCell>
        <mxCell id="dubBO0x6jDg2hfLxzebg-1819" value="&lt;b&gt;Alingment&lt;/b&gt;" style="rounded=1;whiteSpace=wrap;html=1;shadow=0;labelBackgroundColor=none;strokeColor=none;strokeWidth=3;fillColor=#64bbe2;fontFamily=Helvetica;fontSize=14;fontColor=#000000;align=center;spacing=5;arcSize=7;perimeterSpacing=2;" vertex="1" parent="1">
          <mxGeometry x="160" y="-443" width="150" height="60" as="geometry" />
        </mxCell>
        <mxCell id="dubBO0x6jDg2hfLxzebg-1820" value="&lt;b&gt;Segmentation&lt;/b&gt;" style="rounded=1;whiteSpace=wrap;html=1;shadow=0;labelBackgroundColor=none;strokeColor=none;strokeWidth=3;fillColor=#64bbe2;fontFamily=Helvetica;fontSize=14;fontColor=#000000;align=center;spacing=5;arcSize=7;perimeterSpacing=2;" vertex="1" parent="1">
          <mxGeometry x="160" y="-360" width="150" height="60" as="geometry" />
        </mxCell>
        <mxCell id="dubBO0x6jDg2hfLxzebg-1821" value="Point Cloud To Mesh" style="rounded=1;whiteSpace=wrap;html=1;shadow=0;labelBackgroundColor=none;strokeColor=none;strokeWidth=3;fillColor=#1699d3;fontFamily=Helvetica;fontSize=14;fontColor=#000000;align=center;spacing=5;fontStyle=1;arcSize=7;perimeterSpacing=2;" vertex="1" parent="1">
          <mxGeometry x="400" y="-80" width="190" height="60" as="geometry" />
        </mxCell>
        <mxCell id="dubBO0x6jDg2hfLxzebg-1824" value="Point Cloud" style="rounded=1;whiteSpace=wrap;html=1;shadow=0;labelBackgroundColor=none;strokeColor=none;strokeWidth=3;fillColor=#F08705;fontFamily=Helvetica;fontSize=14;fontColor=#FFFFFF;align=center;spacing=5;fontStyle=1;arcSize=7;perimeterSpacing=2;" vertex="1" parent="1">
          <mxGeometry x="160" y="40" width="150" height="60" as="geometry" />
        </mxCell>
        <mxCell id="dubBO0x6jDg2hfLxzebg-1825" value="Mesh" style="rounded=1;whiteSpace=wrap;html=1;shadow=0;labelBackgroundColor=none;strokeColor=none;strokeWidth=3;fillColor=#F08705;fontFamily=Helvetica;fontSize=14;fontColor=#FFFFFF;align=center;spacing=5;fontStyle=1;arcSize=7;perimeterSpacing=2;" vertex="1" parent="1">
          <mxGeometry x="400" y="35" width="150" height="60" as="geometry" />
        </mxCell>
        <mxCell id="dubBO0x6jDg2hfLxzebg-1826" value="Image" style="rounded=1;whiteSpace=wrap;html=1;shadow=0;labelBackgroundColor=none;strokeColor=none;strokeWidth=3;fillColor=#F08705;fontFamily=Helvetica;fontSize=14;fontColor=#FFFFFF;align=center;spacing=5;fontStyle=1;arcSize=7;perimeterSpacing=2;" vertex="1" parent="1">
          <mxGeometry x="160" y="115" width="150" height="60" as="geometry" />
        </mxCell>
        <mxCell id="dubBO0x6jDg2hfLxzebg-1827" value="Normal" style="rounded=1;whiteSpace=wrap;html=1;shadow=0;labelBackgroundColor=none;strokeColor=none;strokeWidth=3;fillColor=#F08705;fontFamily=Helvetica;fontSize=14;fontColor=#FFFFFF;align=center;spacing=5;fontStyle=1;arcSize=7;perimeterSpacing=2;" vertex="1" parent="1">
          <mxGeometry x="400" y="115" width="150" height="60" as="geometry" />
        </mxCell>
        <mxCell id="dubBO0x6jDg2hfLxzebg-1828" value="Merged Mesh" style="rounded=1;whiteSpace=wrap;html=1;shadow=0;labelBackgroundColor=none;strokeColor=none;strokeWidth=3;fillColor=#F08705;fontFamily=Helvetica;fontSize=14;fontColor=#FFFFFF;align=center;spacing=5;fontStyle=1;arcSize=7;perimeterSpacing=2;" vertex="1" parent="1">
          <mxGeometry x="680" y="40" width="150" height="60" as="geometry" />
        </mxCell>
        <mxCell id="dubBO0x6jDg2hfLxzebg-1829" value="Mesh Merge Algorithm" style="rounded=1;whiteSpace=wrap;html=1;shadow=0;labelBackgroundColor=none;strokeColor=none;strokeWidth=3;fillColor=#61c6ce;fontFamily=Helvetica;fontSize=14;fontColor=#FFFFFF;align=center;spacing=5;fontStyle=0;arcSize=7;perimeterSpacing=2;" vertex="1" parent="1">
          <mxGeometry x="680" y="-200" width="180" height="60" as="geometry" />
        </mxCell>
        <mxCell id="dubBO0x6jDg2hfLxzebg-1830" value="Extract Large Primitive" style="rounded=1;whiteSpace=wrap;html=1;shadow=0;labelBackgroundColor=none;strokeColor=none;strokeWidth=3;fillColor=#61c6ce;fontFamily=Helvetica;fontSize=14;fontColor=#FFFFFF;align=center;spacing=5;fontStyle=0;arcSize=7;perimeterSpacing=2;" vertex="1" parent="1">
          <mxGeometry x="160" y="-200" width="180" height="60" as="geometry" />
        </mxCell>
        <mxCell id="dubBO0x6jDg2hfLxzebg-1831" value="Postprocess" style="rounded=1;whiteSpace=wrap;html=1;shadow=0;labelBackgroundColor=none;strokeColor=none;strokeWidth=3;fillColor=#1699d3;fontFamily=Helvetica;fontSize=14;fontColor=#000000;align=center;spacing=5;fontStyle=1;arcSize=7;perimeterSpacing=2;" vertex="1" parent="1">
          <mxGeometry x="680" y="-80" width="150" height="60" as="geometry" />
        </mxCell>
        <mxCell id="dubBO0x6jDg2hfLxzebg-1832" value="Classification" style="rounded=1;whiteSpace=wrap;html=1;shadow=0;labelBackgroundColor=none;strokeColor=none;strokeWidth=3;fillColor=#61c6ce;fontFamily=Helvetica;fontSize=14;fontColor=#FFFFFF;align=center;spacing=5;fontStyle=0;arcSize=7;perimeterSpacing=2;" vertex="1" parent="1">
          <mxGeometry x="160" y="-280" width="110" height="60" as="geometry" />
        </mxCell>
        <mxCell id="dubBO0x6jDg2hfLxzebg-1833" value="instanciation" style="rounded=1;whiteSpace=wrap;html=1;shadow=0;labelBackgroundColor=none;strokeColor=none;strokeWidth=3;fillColor=#61c6ce;fontFamily=Helvetica;fontSize=14;fontColor=#FFFFFF;align=center;spacing=5;fontStyle=0;arcSize=7;perimeterSpacing=2;" vertex="1" parent="1">
          <mxGeometry x="680" y="-280" width="110" height="60" as="geometry" />
        </mxCell>
        <mxCell id="dubBO0x6jDg2hfLxzebg-1834" value="Robust Point Cloud To Mesh Algorithm" style="rounded=1;whiteSpace=wrap;html=1;shadow=0;labelBackgroundColor=none;strokeColor=none;strokeWidth=3;fillColor=#61c6ce;fontFamily=Helvetica;fontSize=14;fontColor=#FFFFFF;align=center;spacing=5;fontStyle=0;arcSize=7;perimeterSpacing=2;" vertex="1" parent="1">
          <mxGeometry x="400" y="-220" width="180" height="60" as="geometry" />
        </mxCell>
        <mxCell id="dubBO0x6jDg2hfLxzebg-1836" value="noise / lack&amp;nbsp;&amp;nbsp;" style="rounded=1;whiteSpace=wrap;html=1;shadow=0;labelBackgroundColor=none;strokeWidth=3;fontFamily=Helvetica;fontSize=14;align=center;spacing=5;fontStyle=0;arcSize=7;perimeterSpacing=2;strokeColor=#61C6CE;" vertex="1" parent="1">
          <mxGeometry x="400" y="-160" width="180" height="30" as="geometry" />
        </mxCell>
        <mxCell id="dubBO0x6jDg2hfLxzebg-1837" value="Retopologied Mesh" style="rounded=1;whiteSpace=wrap;html=1;shadow=0;labelBackgroundColor=none;strokeColor=none;strokeWidth=3;fillColor=#F08705;fontFamily=Helvetica;fontSize=14;fontColor=#FFFFFF;align=center;spacing=5;fontStyle=1;arcSize=7;perimeterSpacing=2;" vertex="1" parent="1">
          <mxGeometry x="680" y="115" width="150" height="60" as="geometry" />
        </mxCell>
        <mxCell id="dubBO0x6jDg2hfLxzebg-1838" value="Retopology algorithm" style="rounded=1;whiteSpace=wrap;html=1;shadow=0;labelBackgroundColor=none;strokeColor=none;strokeWidth=3;fillColor=#61c6ce;fontFamily=Helvetica;fontSize=14;fontColor=#FFFFFF;align=center;spacing=5;fontStyle=0;arcSize=7;perimeterSpacing=2;" vertex="1" parent="1">
          <mxGeometry x="680" y="-383" width="110" height="60" as="geometry" />
        </mxCell>
        <mxCell id="dubBO0x6jDg2hfLxzebg-1839" value="poisson" style="rounded=1;whiteSpace=wrap;html=1;shadow=0;labelBackgroundColor=none;strokeWidth=3;fontFamily=Helvetica;fontSize=14;align=center;spacing=5;fontStyle=0;arcSize=7;perimeterSpacing=2;strokeColor=#61C6CE;" vertex="1" parent="1">
          <mxGeometry x="680" y="-323" width="110" height="30" as="geometry" />
        </mxCell>
        <mxCell id="dubBO0x6jDg2hfLxzebg-1840" value="Preprocess" style="rounded=1;whiteSpace=wrap;html=1;shadow=0;labelBackgroundColor=none;strokeColor=none;strokeWidth=3;fillColor=#1699d3;fontFamily=Helvetica;fontSize=14;fontColor=#000000;align=center;spacing=5;fontStyle=1;arcSize=7;perimeterSpacing=2;" vertex="1" parent="1">
          <mxGeometry x="160" y="-80" width="150" height="60" as="geometry" />
        </mxCell>
      </root>
    </mxGraphModel>
  </diagram>
</mxfile>
